<svg id="Layer_1" data-name="Layer 1" xmlns="http://www.w3.org/2000/svg" viewBox="0 0 23.2 14.56"><defs><style>.cls-1{fill:#f1f2f2;}</style></defs><path class="cls-1" d="M22.85,3.52A5.17,5.17,0,0,0,20.68.84,6,6,0,0,0,17.52,0a6.71,6.71,0,0,0-3.3.83,5.07,5.07,0,0,0-.61-.32A6,6,0,0,0,11.17,0,6,6,0,0,0,9.7.18H2.86L0,14.56H21.58L23,7.3A6.88,6.88,0,0,0,22.85,3.52ZM20.8,6.86l-1.08,5.43H15.65l1-4.91a1.82,1.82,0,0,0-.07-1.29.82.82,0,0,0-.74-.4,1.41,1.41,0,0,0-1,.38,2.5,2.5,0,0,0-.61,1.34l-1,4.88H9.21l1-4.91a1.87,1.87,0,0,0-.07-1.29.82.82,0,0,0-.74-.4,1.35,1.35,0,0,0-1,.4,2.65,2.65,0,0,0-.63,1.4l-1,4.8H2.76l2-9.84H8.56l-.19.95a3.92,3.92,0,0,1,.82-.6,4,4,0,0,1,2-.53,3.69,3.69,0,0,1,1.52.31,3.08,3.08,0,0,1,1.2,1,2.08,2.08,0,0,1,.19.29,4.28,4.28,0,0,1,1-.89,4.44,4.44,0,0,1,2.43-.67,3.74,3.74,0,0,1,2,.51,2.91,2.91,0,0,1,1.23,1.53A4.77,4.77,0,0,1,20.8,6.86Z"/></svg>