<svg xmlns="http://www.w3.org/2000/svg" viewBox="0 0 67.94 19.49"><defs><style>.cls-1{fill:#231f20;}</style></defs><g id="Layer_2" data-name="Layer 2"><g id="Layer_1-2" data-name="Layer 1"><path class="cls-1" d="M27.93,10.22a1.57,1.57,0,0,0-.93.28,1.88,1.88,0,0,0-.63.78,2.91,2.91,0,0,0-.22,1.19,1.65,1.65,0,0,0,.38,1.12,1.41,1.41,0,0,0,1.08.43,1.62,1.62,0,0,0,.93-.28,1.94,1.94,0,0,0,.62-.78,2.94,2.94,0,0,0,.23-1.19A1.61,1.61,0,0,0,29,10.65,1.37,1.37,0,0,0,27.93,10.22Z"/><path class="cls-1" d="M66.51,1.05a4.73,4.73,0,0,0-3.14-1A4.92,4.92,0,0,0,60,1.2a4.29,4.29,0,0,0-1.12,1.51H35.18l-.44,2.22H28.87a7,7,0,0,0-1.61-.18,7.17,7.17,0,0,0-2.93.62A7.47,7.47,0,0,0,22.11,6.9a4.84,4.84,0,0,0-1.43-1.31,6,6,0,0,0-3.15-.84,6.82,6.82,0,0,0-3.31.82,5.81,5.81,0,0,0-.61-.31,5.93,5.93,0,0,0-2.44-.51,6.16,6.16,0,0,0-1.47.18H2.87L0,19.31H21.58l.3-1.51a6.19,6.19,0,0,0,1.17.86,6.07,6.07,0,0,0,3,.83,6.41,6.41,0,0,0,1.53-.18h6.64l.28-1.39a5.14,5.14,0,0,0,1.16.84,6.8,6.8,0,0,0,3.2.73,9.59,9.59,0,0,0,1.85-.18,6.39,6.39,0,0,0,1.91-.68l.5-.28a4.65,4.65,0,0,0,.64.41,6.8,6.8,0,0,0,3.2.73,9.51,9.51,0,0,0,1.85-.18,6.39,6.39,0,0,0,1.91-.68l.5-.28a4.65,4.65,0,0,0,.64.41,6.8,6.8,0,0,0,3.2.73,9.59,9.59,0,0,0,1.85-.18h7.63L67.05,6.83a4.33,4.33,0,0,0,.89-2.71A3.94,3.94,0,0,0,66.51,1.05ZM19.72,17H15.65l1-4.91a1.82,1.82,0,0,0-.07-1.29.81.81,0,0,0-.74-.4,1.41,1.41,0,0,0-1,.38,2.5,2.5,0,0,0-.61,1.34l-1,4.88H9.21l1-4.91a1.87,1.87,0,0,0-.07-1.29.82.82,0,0,0-.74-.4,1.37,1.37,0,0,0-1,.4,2.65,2.65,0,0,0-.62,1.4l-1,4.8H2.77l2-9.84H8.56l-.19,1a3.92,3.92,0,0,1,.82-.6,4,4,0,0,1,2-.53,3.69,3.69,0,0,1,1.52.31,3,3,0,0,1,1.2.95,2.9,2.9,0,0,1,.19.29,4.49,4.49,0,0,1,1-.88A4.39,4.39,0,0,1,17.53,7a3.79,3.79,0,0,1,2,.51,2.81,2.81,0,0,1,1.14,1.35,1.42,1.42,0,0,1,.08.18,4.67,4.67,0,0,1,.07,2.55l-.68,3.44Zm8.84,0,.18-.91a3.23,3.23,0,0,1-.56.48,3.63,3.63,0,0,1-2.1.61,3.86,3.86,0,0,1-1.91-.53,4.09,4.09,0,0,1-1.54-1.55,1.33,1.33,0,0,1-.15-.32A4.7,4.7,0,0,1,22,12.67a5.85,5.85,0,0,1,.41-2.25,5.28,5.28,0,0,1,.67-1.21,5.18,5.18,0,0,1,.47-.58,5.31,5.31,0,0,1,1.68-1.19,4.85,4.85,0,0,1,2-.42,4.08,4.08,0,0,1,2,.46,2.32,2.32,0,0,1,.82.77l.21-1h4.07L33,13.74v0L32.39,17Zm11.74.05a7.32,7.32,0,0,1-1.41.13,4.42,4.42,0,0,1-2.14-.47,2.59,2.59,0,0,1-1.24-1.37,3.12,3.12,0,0,1-.2-1.36,4.2,4.2,0,0,1,.09-.83l.5-2.48H34.53l.6-3h1.43L37.11,5h4l-.55,2.76h2l-.59,3H40l-.49,2.46a.9.9,0,0,0,.1.74.77.77,0,0,0,.62.23,1.7,1.7,0,0,0,.46-.06,4.31,4.31,0,0,0,.44-.17l0,.24v0l.32,1.88s0,0,0,0l.1.58A4.3,4.3,0,0,1,40.3,17.09Zm8.1,0a7.32,7.32,0,0,1-1.41.13,4.42,4.42,0,0,1-2.14-.47,2.47,2.47,0,0,1-1.19-1.28h0a.3.3,0,0,1,0-.08,3.07,3.07,0,0,1-.2-1.35v0a4,4,0,0,1,.09-.82l0-.22L44,10.71H42.63l.6-3h1.36L45,5.47l.1-.49H49.2l-.55,2.76h2l-.59,3h-2l-.49,2.46a.9.9,0,0,0,.1.74.77.77,0,0,0,.62.23,1.7,1.7,0,0,0,.46-.06,4.31,4.31,0,0,0,.44-.17l0,.24v0l.34,1.94a0,0,0,0,0,0,0l.09.52A4.47,4.47,0,0,1,48.4,17.09Zm8.1,0-.17,0a6.36,6.36,0,0,1-1.24.11A4.42,4.42,0,0,1,53,16.75a2.47,2.47,0,0,1-1.19-1.28h0a.3.3,0,0,1,0-.08,3.07,3.07,0,0,1-.2-1.35v0a4,4,0,0,1,.09-.82l0-.22.46-2.26H50.73l.6-3h1.36l.45-2.27.1-.49H57.3l-.55,2.76h2l-.59,3h-2l-.49,2.46a.9.9,0,0,0,.1.74.77.77,0,0,0,.62.23,1.7,1.7,0,0,0,.46-.06l.09,0,.35-.14.46,2.74A4.3,4.3,0,0,1,56.5,17.09ZM62.7,17h-4l.79-4,0-.11L60.62,7.2h4.05ZM65,5.76a2.68,2.68,0,0,1-1.88.64,2.4,2.4,0,0,1-1.63-.52s0,0-.05,0a1.62,1.62,0,0,1-.32-.38,1.7,1.7,0,0,1-.3-1,2,2,0,0,1,.71-1.59,2.72,2.72,0,0,1,1.88-.63,2.51,2.51,0,0,1,1.68.53,1.63,1.63,0,0,1,.62,1.33A2.07,2.07,0,0,1,65,5.76Z"/></g></g></svg>